# xmcd
#
# Track frame offsets:
#	150
#	11032
#	28453
#	50119
#	65613
#	82830
#	98146
#	126016
#	143782
#	169051
#	186641
#	199853
#	210258
#	231282
#	254543
#	272016
#	292219
#	307359
#	322836
#	335423
#
# Disc length: 4668 seconds
#
# Revision: 0
# Processed by: cddbd v1.5.2PL0 Copyright (c) Steve Scherf et al.
# Submitted via: EasyCDDAExtractor 12.0.1.1
#
DISCID=3a123a14
DTITLE=Kauko Röyhkä - Menneisyyden taikaa etsimässä 1980 - 1990
DYEAR=2009
DGENRE=Acid
TTITLE0=Viheiset miehet
TTITLE1=Laulujen nainen
TTITLE2=Ruosteinen kuu
TTITLE3=Talo meren rannalla
TTITLE4=Pikku enkeli
TTITLE5=Ennen olin kokonaan toinen
TTITLE6=Mielummin vanha kuin aikuinen
TTITLE7=Mainostaulujen taakse
TTITLE8=Paha maa
TTITLE9=Olen messias
TTITLE10=Majavanlakki
TTITLE11=Ihmelapsen viimeiset hetket
TTITLE12=Malagalainen
TTITLE13=Tuntemattomalle
TTITLE14=Pastoraali
TTITLE15=Huutoa puistossa
TTITLE16=Joko-tai
TTITLE17=Edgar Allan Poe
TTITLE18=Liikennepuistossa
TTITLE19=Talvella
EXTD=
EXTT0=
EXTT1=
EXTT2=
EXTT3=
EXTT4=
EXTT5=
EXTT6=
EXTT7=
EXTT8=
EXTT9=
EXTT10=
EXTT11=
EXTT12=
EXTT13=
EXTT14=
EXTT15=
EXTT16=
EXTT17=
EXTT18=
EXTT19=
PLAYORDER=
